
#
# object CubeCoin_LOD_1
#

v  10.9472 6.5683 -10.9471
v  10.9472 10.9472 -6.5682
v  10.9472 10.9472 6.5685
v  10.9472 6.5683 10.9472
v  10.9472 -6.5683 10.9472
v  10.9472 -10.9472 6.5685
v  10.9472 -10.9472 -6.5682
v  10.9472 -6.5683 -10.9471
v  -10.9472 -10.9472 -6.5681
v  -6.5683 -10.9472 -10.9471
v  6.5683 -10.9472 -10.9471
v  6.5683 -10.9472 10.9472
v  -6.5683 -10.9472 10.9472
v  -10.9472 -10.9472 6.5685
v  6.5683 10.9472 10.9472
v  -6.5683 10.9472 10.9472
v  -10.9472 6.5683 10.9472
v  -10.9472 -6.5683 10.9472
v  6.5683 10.9471 -10.9472
v  -10.9472 -6.5683 -10.9471
v  -10.9472 6.5683 -10.9471
v  -6.5683 10.9472 -10.9471
v  -10.9472 10.9472 6.5685
v  -10.9472 10.9472 -6.5682
# 24 vertices

vn 1.0000 0.0000 -0.0000
vn 0.0000 -1.0000 -0.0000
vn 0.0000 0.0000 1.0000
vn 0.0000 -0.0000 -1.0000
vn 0.0000 0.0000 -1.0000
vn -0.0000 -0.0000 -1.0000
vn -0.0000 0.0000 -1.0000
vn -1.0000 0.0000 -0.0000
vn 0.0000 1.0000 -0.0000
vn 0.5773 0.5773 0.5774
vn 0.5773 -0.5773 0.5774
vn 0.5774 -0.5774 -0.5773
vn -0.5774 -0.5774 -0.5773
vn -0.5773 -0.5773 0.5774
vn -0.5774 0.5774 -0.5773
vn 0.5774 0.5773 -0.5773
vn -0.5773 0.5773 0.5774
# 17 vertex normals

vt 23.5000 17.8431 0.0000
vt 17.8685 21.6293 0.0000
vt 2.1985 22.3265 0.0000
vt 0.2093 19.5491 0.0000
vt 3.1660 3.9085 0.0000
vt 5.5372 1.7045 0.0000
vt 19.1832 3.1607 0.0000
vt 23.5000 5.9022 0.0000
vt -0.5000 20.0484 0.0000
vt -3.6411 23.5000 0.0000
vt -18.2030 23.5000 0.0000
vt -22.8989 18.4923 0.0000
vt -24.1601 2.6619 0.0000
vt -20.1196 0.6270 0.0000
vt -5.2990 1.2865 0.0000
vt -0.5000 4.6998 0.0000
vt 19.6075 1.8753 0.0000
vt 23.5000 4.0305 0.0000
vt 23.5000 20.4633 0.0000
vt 19.9669 23.1593 0.0000
vt 6.6101 21.8714 0.0000
vt 1.5000 18.1356 0.0000
vt 1.5000 6.0505 0.0000
vt 5.9291 3.1942 0.0000
vt 5.5222 21.3787 0.0000
vt 1.5000 17.8431 0.0000
vt 1.5000 5.9022 0.0000
vt 5.7970 3.6213 0.0000
vt 20.3589 3.6213 0.0000
vt 23.5000 5.7507 0.0000
vt 23.5000 18.5574 0.0000
vt 19.5499 21.3787 0.0000
vt -0.1168 3.2046 0.0000
vt 3.4027 0.6057 0.0000
vt 20.0330 1.3457 0.0000
vt 23.5000 4.2193 0.0000
vt 23.5000 17.7482 0.0000
vt 19.3762 21.7763 0.0000
vt 4.9926 23.1632 0.0000
vt 1.2081 19.8361 0.0000
vt 1.5000 5.6238 0.0000
vt 6.6101 1.5000 0.0000
vt 19.9669 1.5000 0.0000
vt 23.5000 3.8402 0.0000
vt 23.5000 18.3025 0.0000
vt 19.4778 23.5000 0.0000
vt 5.4501 23.5000 0.0000
vt 1.5000 20.0074 0.0000
# 48 texture coords

g CubeCoin_LOD_1
s 16
f 1/1/1 2/2/1 3/3/1 
f 3/3/1 4/4/1 5/5/1 
f 5/5/1 6/6/1 7/7/1 
f 3/3/1 5/5/1 7/7/1 
f 1/1/1 3/3/1 7/7/1 
f 8/8/1 1/1/1 7/7/1 
s 2
f 9/9/2 10/10/2 11/11/2 
f 11/11/2 7/12/2 6/13/2 
f 6/13/2 12/14/2 13/15/2 
f 11/11/2 6/13/2 13/15/2 
f 9/9/2 11/11/2 13/15/2 
f 14/16/2 9/9/2 13/15/2 
s 8
f 12/17/3 5/18/3 4/19/3 
f 4/19/3 15/20/3 16/21/3 
f 12/17/3 4/19/3 16/21/3 
f 16/21/3 17/22/3 18/23/3 
f 12/17/3 16/21/3 18/23/3 
f 13/24/3 12/17/3 18/23/3 
s 32
f 19/25/4 1/26/5 8/27/4 
f 8/27/4 11/28/5 10/29/6 
f 19/25/4 8/27/4 10/29/6 
f 10/29/6 20/30/5 21/31/7 
f 19/25/4 10/29/6 21/31/7 
f 22/32/7 19/25/4 21/31/7 
s 64
f 20/33/8 9/34/8 14/35/8 
f 14/35/8 18/36/8 17/37/8 
f 17/37/8 23/38/8 24/39/8 
f 14/35/8 17/37/8 24/39/8 
f 20/33/8 14/35/8 24/39/8 
f 21/40/8 20/33/8 24/39/8 
s 4
f 23/41/9 16/42/9 15/43/9 
f 15/43/9 3/44/9 2/45/9 
f 23/41/9 15/43/9 2/45/9 
f 2/45/9 19/46/9 22/47/9 
f 23/41/9 2/45/9 22/47/9 
f 24/48/9 23/41/9 22/47/9 
s off
f 3/3/10 15/43/10 4/19/10 
f 6/13/11 5/5/11 12/17/11 
f 7/7/12 11/11/12 8/27/12 
f 10/29/13 9/9/13 20/33/13 
f 14/35/14 13/15/14 18/23/14 
f 21/31/15 24/39/15 22/47/15 
f 2/45/16 1/1/16 19/25/16 
f 23/41/17 17/37/17 16/21/17 
# 44 faces

#
# object Plane001
#

#
# object Cylinder008
#

#
# object Cylinder012
#

