
#
# object Quartz_LOD_1
#

v  0.1496 -11.3488 -0.0657
v  5.5978 -5.9237 0.0784
v  -0.0345 -6.0314 5.4864
v  0.0344 5.5787 -5.4864
v  -5.5978 5.4709 -0.0784
v  -0.1557 11.3488 0.0684
v  0.1897 -5.9631 -5.5547
v  5.4425 5.6181 0.1466
v  -5.4425 -6.0708 -0.1466
v  -0.1897 5.5104 5.5547
# 10 vertices

vn 0.0000 0.0000 -0.0000
vn 0.5674 -0.5852 0.5793
vn -0.5822 0.5539 -0.5953
vn 0.7212 0.0138 -0.6925
vn -0.6925 -0.0051 -0.7214
vn -0.7212 -0.0138 0.6925
vn 0.6925 0.0051 0.7214
vn 0.5906 -0.5782 -0.5630
vn -0.5747 -0.6004 0.5560
vn -0.5516 -0.5934 -0.5862
vn 0.5910 0.5695 -0.5713
vn -0.6060 0.5466 0.5779
vn 0.5671 0.5623 0.6019
# 13 vertex normals

vt -4.0000 5.0000 0.0000
vt 1.0000 0.0000 0.0000
vt 1.0000 10.0000 0.0000
vt 10.0000 0.0000 0.0000
vt 10.0000 10.0000 0.0000
vt 5.0000 5.0000 0.0000
vt 0.0000 0.0000 0.0000
vt 10.0000 20.0000 0.0000
vt 0.0000 20.0000 0.0000
vt -9.0000 0.0000 0.0000
vt -9.0000 10.0000 0.0000
vt 0.0000 10.0000 0.0000
# 12 texture coords

g Quartz_LOD_1
s off
f 1/1/1 2/2/1 2/2/1 
f 2/2/2 3/3/2 1/1/2 
f 4/4/3 5/5/3 6/6/3 
f 2/7/4 7/4/4 4/8/4 
f 2/7/1 2/7/1 4/8/1 
f 2/7/4 4/8/4 8/9/4 
f 7/7/5 9/4/5 5/8/5 
f 5/8/5 4/9/5 7/7/5 
f 9/7/6 3/4/6 10/8/6 
f 10/8/6 5/9/6 9/7/6 
f 3/7/7 2/4/7 8/8/7 
f 8/8/7 10/9/7 3/7/7 
f 7/10/8 2/2/8 1/1/8 
f 3/3/9 9/11/9 1/1/9 
f 1/1/10 9/11/10 7/10/10 
f 8/7/11 4/4/11 6/6/11 
f 5/5/12 10/12/12 6/6/12 
f 6/6/13 10/12/13 8/7/13 
# 18 faces

#
# object Plane001
#

#
# object Cylinder008
#

#
# object Cylinder012
#

